<svg xmlns="http://www.w3.org/2000/svg" xmlns:xlink="http://www.w3.org/1999/xlink" version="1.1" width="256" height="256" viewBox="0 0 256 256" xml:space="preserve">
<g style="stroke: none; stroke-width: 0; stroke-dasharray: none; stroke-linecap: butt; stroke-linejoin: miter; stroke-miterlimit: 10; fill: none; fill-rule: nonzero; opacity: 1;" transform="translate(1.4065934065934016 1.4065934065934016) scale(2.81 2.81)">
	<path d="M 46.051 89.797 c 24.029 -9.725 36.144 -20.05 36.345 -72.367 c 0.003 -0.78 -0.532 -1.464 -1.288 -1.657 C 68.239 12.49 56.71 7.388 46.52 0.469 c -0.921 -0.626 -2.119 -0.626 -3.04 0 C 33.29 7.388 21.761 12.49 8.891 15.773 C 8.135 15.965 7.6 16.65 7.603 17.43 C 7.805 69.747 19.92 80.071 43.949 89.797 C 44.618 90.068 45.382 90.068 46.051 89.797 z" style="stroke: none; stroke-width: 1; stroke-dasharray: none; stroke-linecap: butt; stroke-linejoin: miter; stroke-miterlimit: 10; fill: rgb(76,76,76); fill-rule: nonzero; opacity: 1;" transform=" matrix(1 0 0 1 0 0) " stroke-linecap="round"/>
</g>
</svg>